<?xml version="1.0" encoding="iso-8859-1"?>
<!-- Uploaded to: SVG Repo, www.svgrepo.com, Generator: SVG Repo Mixer Tools -->
<svg fill="#000000" height="800px" width="800px" version="1.1" id="Layer_1" xmlns="http://www.w3.org/2000/svg" xmlns:xlink="http://www.w3.org/1999/xlink" 
	 viewBox="0 0 512.002 512.002" xml:space="preserve">
<g>
	<g>
		<path d="M415.648,265.136c-4.877-0.543-9.277,2.965-9.823,7.845c-8.543,76.273-72.953,133.789-149.823,133.789
			c-4.91,0-8.889,3.98-8.889,8.889c0,4.909,3.979,8.889,8.889,8.889c85.934,0,157.94-64.309,167.49-149.588
			C424.038,270.079,420.526,265.682,415.648,265.136z"/>
	</g>
</g>
<g>
	<g>
		<path d="M164.916,376.156c-37.93-28.8-59.684-72.595-59.684-120.155c0-35.448,12.543-69.888,35.321-96.974
			c3.16-3.757,2.675-9.365-1.082-12.524c-3.758-3.161-9.366-2.676-12.526,1.081C101.478,177.87,87.453,216.373,87.453,256
			c0,53.168,24.316,102.124,66.713,134.315c1.606,1.221,3.495,1.81,5.368,1.81c2.686,0,5.338-1.211,7.087-3.514
			C169.589,384.701,168.825,379.125,164.916,376.156z"/>
	</g>
</g>
<g>
	<g>
		<path d="M437.02,74.981C388.668,26.629,324.382,0.001,256.001,0.001c-58.408,0-113.409,19.156-159.055,55.395
			C52.66,90.554,20.865,139.983,7.42,194.577c-1.173,4.766,1.739,9.583,6.505,10.757c4.768,1.173,9.584-1.739,10.757-6.506
			c12.51-50.791,42.1-96.786,83.319-129.509c42.471-33.718,93.648-51.54,148-51.54c131.356,0,238.221,106.866,238.221,238.221
			c0,131.356-106.865,238.222-238.221,238.222S17.779,387.357,17.779,256.001c0-8.126,0.415-16.324,1.232-24.367
			c0.495-4.884-3.062-9.246-7.946-9.742c-4.893-0.498-9.246,3.061-9.743,7.946C0.444,238.474,0,247.277,0,256.001
			c0,68.38,26.629,132.668,74.982,181.02c48.352,48.352,112.638,74.981,181.02,74.981c68.379,0,132.668-26.629,181.02-74.981
			c48.352-48.352,74.981-112.64,74.981-181.02S485.372,123.333,437.02,74.981z"/>
	</g>
</g>
<g>
	<g>
		<path d="M309.092,190.383c-6.851-1.121-13.726,0.493-19.361,4.544c-5.636,4.05-9.358,10.053-10.478,16.902
			c-1.121,6.85,0.492,13.726,4.542,19.361s10.053,9.357,16.903,10.478c1.415,0.232,2.822,0.344,4.212,0.344
			c12.494,0,23.544-9.065,25.627-21.788c0,0,0,0,0-0.001C332.852,206.082,323.231,192.696,309.092,190.383z M312.993,217.352
			c-0.732,4.464-4.964,7.497-9.423,6.771c-2.162-0.354-4.058-1.529-5.337-3.309c-1.279-1.78-1.789-3.95-1.434-6.115
			c0.354-2.162,1.529-4.057,3.308-5.336c1.41-1.013,3.067-1.544,4.771-1.544c0.444,0,0.894,0.037,1.343,0.109
			C310.685,208.66,313.723,212.887,312.993,217.352z"/>
	</g>
</g>
<g>
	<g>
		<path d="M469.587,189.234c-27.043-29.903-58.574-54.904-93.716-74.31c-36.356-20.077-75.763-33.688-117.127-40.457
			c-38.594-6.319-77.543-6.448-115.771-0.388c-2.328,0.37-4.415,1.649-5.801,3.556s-1.956,4.287-1.587,6.616l55.613,350.632
			c0.512,3.224,2.747,5.907,5.827,6.992c0.964,0.339,1.96,0.505,2.951,0.505c2.173,0,4.31-0.796,5.97-2.302l170.206-154.212
			c3.638-3.296,3.915-8.918,0.618-12.556c-3.297-3.639-8.918-3.914-12.556-0.618l-24.832,22.498
			c-9.659-10.177-22.293-16.892-36.43-19.204c-17.091-2.796-34.245,1.229-48.307,11.338c-14.059,10.108-23.343,25.087-26.141,42.176
			c-3.149,19.24,2.336,38.315,14.799,52.74l-37.122,33.632l-24.975-157.468c19.113-3.806,34.585-19.197,37.842-39.108
			c2.06-12.587-0.902-25.222-8.342-35.575c-7.439-10.353-18.466-17.19-31.05-19.248c-4.442-0.728-8.956-0.798-13.392-0.269
			l-2.138-13.482c8.554-1.077,17.185-1.772,25.761-2.067c4.907-0.169,8.747-4.283,8.578-9.189c-0.168-4.907-4.284-8.741-9.189-8.579
			c-9.303,0.32-18.665,1.082-27.937,2.269l-6.783-42.793c33.517-4.426,67.556-3.876,101.316,1.651
			c39.352,6.441,76.835,19.385,111.405,38.475c30.835,17.028,58.747,38.588,83.084,64.162l-32.09,29.08
			c-45.576-47.576-103.948-78.296-169.387-89.005c-9.918-1.625-20.008-2.77-29.987-3.406c-4.919-0.314-9.125,3.408-9.436,8.306
			c-0.313,4.9,3.406,9.124,8.306,9.436c9.398,0.599,18.899,1.678,28.244,3.208c61.42,10.052,116.226,38.832,159.068,83.391
			l-20.303,18.399c-3.638,3.296-3.915,8.918-0.617,12.556s8.918,3.915,12.556,0.617l72.249-65.449
			C472.599,198.488,472.879,192.872,469.587,189.234z M246.052,332.37c2.03-12.404,8.767-23.276,18.973-30.612
			s22.656-10.257,35.057-8.229c10.104,1.655,19.146,6.412,26.112,13.61l-69.691,63.141
			C247.674,359.852,243.791,346.173,246.052,332.37z M176.788,182.015c7.896,1.292,14.816,5.581,19.483,12.078
			c4.667,6.497,6.527,14.427,5.234,22.33c-2.008,12.264-11.425,21.776-23.089,24.384l-9.365-59.043
			C171.618,181.517,174.221,181.595,176.788,182.015z"/>
	</g>
</g>
<g>
	<g>
		<circle cx="356.533" cy="227.626" r="8.889"/>
	</g>
</g>
<g>
	<g>
		<circle cx="211.032" cy="356.557" r="8.889"/>
	</g>
</g>
</svg>